# xmcd
#
# Track frame offsets: 
#        150
#        22347
#        37338
#        47766
#        62775
#        77057
#        93875
#        117379
#        131620
#        146336
#        156867
#        173539
#        188012
#
# Disc length: 3600 seconds
#
# Revision: 0
# Processed by: cddbd v1.5.1PL2 Copyright (c) Steve Scherf et al.
# Submitted via: ExactAudioCopy v0.95b3
#
DISCID=b00e0e0d
DTITLE=Infamis - Alte Nacht
DYEAR=2000
DGENRE=
TTITLE0=Stark und furchtlos (Being Charlie Ford)
TTITLE1=Auf den Weg
TTITLE2=Hafen
TTITLE3=Nimm die Tür
TTITLE4=Eve
TTITLE5=Asche
TTITLE6=Gitarrenspieler
TTITLE7=Nacht
TTITLE8=Morgen
TTITLE9=Alles geht zu Ende
TTITLE10=Arschloch
TTITLE11=Billig
TTITLE12=Last man standing
EXTD=
EXTT0=
EXTT1=
EXTT2=
EXTT3=
EXTT4=
EXTT5=
EXTT6=
EXTT7=
EXTT8=
EXTT9=
EXTT10=
EXTT11=
EXTT12=
PLAYORDER=
